<mxfile host="app.diagrams.net" modified="2024-09-11T17:28:19.586Z" agent="Mozilla/5.0 (Windows NT 10.0; Win64; x64) AppleWebKit/537.36 (KHTML, like Gecko) Chrome/128.0.0.0 Safari/537.36" version="24.3.1" etag="nrL2qh79Ze-6KU8oTDCh" type="github">
  <diagram name="Page-1" id="YMv9n5-5h5H201cd8FKh">
    <mxGraphModel>
      <root>
        <mxCell id="0" />
        <mxCell id="1" parent="0" />
      </root>
    </mxGraphModel>
  </diagram>
</mxfile>
